<svg width="109" height="24" viewBox="0 0 109 24" fill="none" xmlns="http://www.w3.org/2000/svg">
<path d="M1.248 23V4.856H0.64L1.088 0.599998H5.6V6.456L8.352 0.599998H12.512L8.128 9.944L13.088 23H8.928L5.6 14.232V23H1.248ZM18.833 23C17.1903 23 16.0063 22.648 15.281 21.944C14.577 21.2187 14.225 20.0453 14.225 18.424V11.576C14.225 9.93333 14.5663 8.76 15.249 8.056C15.953 7.352 17.105 7 18.705 7H18.993C19.5477 7 20.049 7.096 20.497 7.288V7H24.849V18.744H25.169L25.489 23H20.497V21.304L19.345 23H18.833ZM18.737 11.256C18.6303 11.256 18.577 11.3093 18.577 11.416V18.584C18.577 18.6907 18.6303 18.744 18.737 18.744H20.497V11.256H18.737ZM27.7238 23V11.256H27.0838L27.4038 7H32.0758V8.824L33.2278 7H35.8198V11.896H32.0758V23H27.7238ZM38.407 5.72L38.727 1.464H42.759V5.72H38.407ZM38.407 23V11.256H37.895L38.215 7H42.759V23H38.407ZM45.3313 23V11.256H44.6913L45.0113 7H49.6833V8.696L50.8353 7H51.3473C53.5659 7 54.9633 7.69333 55.5393 9.08L56.9473 7H57.6193C59.2619 7 60.4353 7.352 61.1393 8.056C61.8646 8.76 62.2273 9.93333 62.2273 11.576V18.744H62.8673L62.5473 23H57.8753V11.416C57.8753 11.3093 57.8219 11.256 57.7153 11.256H55.9553C55.9553 11.3413 55.9553 11.448 55.9553 11.576V23H51.6033V11.416C51.6033 11.3093 51.5499 11.256 51.4433 11.256H49.6833V23H45.3313ZM71.0558 11.416C71.0558 11.3093 71.0024 11.256 70.8958 11.256H69.2958C69.1891 11.256 69.1358 11.3093 69.1358 11.416V18.84C69.1358 18.9467 69.1891 19 69.2958 19H70.8958C71.0024 19 71.0558 18.9467 71.0558 18.84V11.416ZM64.7838 18.68V11.576C64.7838 9.93333 65.1358 8.76 65.8398 8.056C66.5651 7.352 67.7491 7 69.3918 7H70.7998C72.4424 7 73.6158 7.352 74.3198 8.056C75.0451 8.76 75.4078 9.93333 75.4078 11.576V18.68C75.4078 20.3013 75.0451 21.4747 74.3198 22.2C73.6158 22.904 72.4424 23.256 70.7998 23.256H69.3918C67.7491 23.256 66.5651 22.904 65.8398 22.2C65.1358 21.496 64.7838 20.3227 64.7838 18.68ZM80.097 23L77.025 7H80.737L82.273 15.864L83.809 7H87.521L84.449 23H80.097ZM89.7663 23V19.704H93.0623V23H89.7663ZM95.2888 23L97.9448 4.856H97.2728L97.7208 0.599998H105.177L108.473 23H104.153L103.673 19.8H100.089L99.6088 23H95.2888ZM100.697 15.544H103.065L101.881 7.544L100.697 15.544Z" fill="white"/>
</svg>
